<mxfile host="Electron" agent="Mozilla/5.0 (Windows NT 10.0; Win64; x64) AppleWebKit/537.36 (KHTML, like Gecko) draw.io/26.1.1 Chrome/132.0.6834.210 Electron/34.3.3 Safari/537.36" version="26.1.1">
  <diagram name="Page-1" id="mnBK56aFDxadG4d0JKQJ">
    <mxGraphModel dx="1200" dy="775" grid="1" gridSize="10" guides="1" tooltips="1" connect="1" arrows="1" fold="1" page="1" pageScale="1" pageWidth="570" pageHeight="940" math="0" shadow="0">
      <root>
        <mxCell id="0" />
        <mxCell id="1" parent="0" />
        <mxCell id="WHYjxWJRfi_5MJf1iiia-1" value="+ tableObserver" style="swimlane;fontStyle=1;align=center;verticalAlign=top;childLayout=stackLayout;horizontal=1;startSize=26;horizontalStack=0;resizeParent=1;resizeParentMax=0;resizeLast=0;collapsible=1;marginBottom=0;whiteSpace=wrap;html=1;" vertex="1" parent="1">
          <mxGeometry x="369" y="296" width="160" height="80" as="geometry" />
        </mxCell>
        <mxCell id="WHYjxWJRfi_5MJf1iiia-2" value="" style="line;strokeWidth=1;fillColor=none;align=left;verticalAlign=middle;spacingTop=-1;spacingLeft=3;spacingRight=3;rotatable=0;labelPosition=right;points=[];portConstraint=eastwest;strokeColor=inherit;" vertex="1" parent="WHYjxWJRfi_5MJf1iiia-1">
          <mxGeometry y="26" width="160" height="8" as="geometry" />
        </mxCell>
        <mxCell id="WHYjxWJRfi_5MJf1iiia-3" value="+ update()&lt;div&gt;+ checkState(&lt;span style=&quot;background-color: transparent; color: light-dark(rgb(0, 0, 0), rgb(255, 255, 255));&quot;&gt;): List&amp;lt;Int&amp;gt;&lt;/span&gt;&lt;/div&gt;" style="text;strokeColor=none;fillColor=none;align=left;verticalAlign=top;spacingLeft=4;spacingRight=4;overflow=hidden;rotatable=0;points=[[0,0.5],[1,0.5]];portConstraint=eastwest;whiteSpace=wrap;html=1;" vertex="1" parent="WHYjxWJRfi_5MJf1iiia-1">
          <mxGeometry y="34" width="160" height="46" as="geometry" />
        </mxCell>
        <mxCell id="WHYjxWJRfi_5MJf1iiia-4" value="+ Data" style="swimlane;fontStyle=1;align=center;verticalAlign=top;childLayout=stackLayout;horizontal=1;startSize=26;horizontalStack=0;resizeParent=1;resizeParentMax=0;resizeLast=0;collapsible=1;marginBottom=0;whiteSpace=wrap;html=1;" vertex="1" parent="1">
          <mxGeometry x="90" y="286" width="160" height="100" as="geometry" />
        </mxCell>
        <mxCell id="WHYjxWJRfi_5MJf1iiia-5" value="- a,b,c: Int" style="text;strokeColor=none;fillColor=none;align=left;verticalAlign=top;spacingLeft=4;spacingRight=4;overflow=hidden;rotatable=0;points=[[0,0.5],[1,0.5]];portConstraint=eastwest;whiteSpace=wrap;html=1;" vertex="1" parent="WHYjxWJRfi_5MJf1iiia-4">
          <mxGeometry y="26" width="160" height="26" as="geometry" />
        </mxCell>
        <mxCell id="WHYjxWJRfi_5MJf1iiia-6" value="" style="line;strokeWidth=1;fillColor=none;align=left;verticalAlign=middle;spacingTop=-1;spacingLeft=3;spacingRight=3;rotatable=0;labelPosition=right;points=[];portConstraint=eastwest;strokeColor=inherit;" vertex="1" parent="WHYjxWJRfi_5MJf1iiia-4">
          <mxGeometry y="52" width="160" height="8" as="geometry" />
        </mxCell>
        <mxCell id="WHYjxWJRfi_5MJf1iiia-7" value="+ getState() : List&amp;lt;Int&amp;gt;&lt;div&gt;+ setState(a,b,c : Int)&lt;/div&gt;" style="text;strokeColor=none;fillColor=none;align=left;verticalAlign=top;spacingLeft=4;spacingRight=4;overflow=hidden;rotatable=0;points=[[0,0.5],[1,0.5]];portConstraint=eastwest;whiteSpace=wrap;html=1;" vertex="1" parent="WHYjxWJRfi_5MJf1iiia-4">
          <mxGeometry y="60" width="160" height="40" as="geometry" />
        </mxCell>
        <mxCell id="WHYjxWJRfi_5MJf1iiia-8" value="" style="endArrow=block;endSize=16;endFill=0;html=1;rounded=0;entryX=0.5;entryY=1;entryDx=0;entryDy=0;exitX=0.5;exitY=0;exitDx=0;exitDy=0;" edge="1" parent="1" source="WHYjxWJRfi_5MJf1iiia-4" target="WHYjxWJRfi_5MJf1iiia-10">
          <mxGeometry width="160" relative="1" as="geometry">
            <mxPoint x="170" y="370" as="sourcePoint" />
            <mxPoint x="170" y="190" as="targetPoint" />
          </mxGeometry>
        </mxCell>
        <mxCell id="WHYjxWJRfi_5MJf1iiia-9" value="" style="endArrow=block;endSize=16;endFill=0;html=1;rounded=0;entryX=0.25;entryY=1;entryDx=0;entryDy=0;exitX=0.5;exitY=0;exitDx=0;exitDy=0;" edge="1" parent="1" source="WHYjxWJRfi_5MJf1iiia-1" target="WHYjxWJRfi_5MJf1iiia-11">
          <mxGeometry width="160" relative="1" as="geometry">
            <mxPoint x="429.77" y="390" as="sourcePoint" />
            <mxPoint x="430" y="290" as="targetPoint" />
          </mxGeometry>
        </mxCell>
        <mxCell id="WHYjxWJRfi_5MJf1iiia-10" value="&lt;p style=&quot;margin:0px;margin-top:4px;text-align:center;&quot;&gt;&lt;i&gt;&amp;lt;&amp;lt;Abstract&amp;gt;&amp;gt;&lt;/i&gt;&lt;br&gt;&lt;b&gt;+ Subject&lt;/b&gt;&lt;/p&gt;&lt;hr size=&quot;1&quot; style=&quot;border-style:solid;&quot;&gt;&lt;p style=&quot;margin:0px;margin-left:4px;&quot;&gt;&amp;nbsp;- observerList: List&amp;lt;Observer&amp;gt;&lt;/p&gt;&lt;hr size=&quot;1&quot; style=&quot;border-style:solid;&quot;&gt;&lt;p style=&quot;margin:0px;margin-left:4px;&quot;&gt;+ add(observer: Observer)&lt;/p&gt;&lt;div&gt;&amp;nbsp;+ delete(observer: Observer)&amp;nbsp;&lt;/div&gt;&lt;div&gt;&amp;nbsp;+ notify()&lt;/div&gt;" style="verticalAlign=top;align=left;overflow=fill;html=1;whiteSpace=wrap;fillColor=none;" vertex="1" parent="1">
          <mxGeometry x="75" y="50" width="190" height="120" as="geometry" />
        </mxCell>
        <mxCell id="WHYjxWJRfi_5MJf1iiia-11" value="&lt;p style=&quot;margin:0px;margin-top:4px;text-align:center;&quot;&gt;&lt;i&gt;&amp;lt;&amp;lt;Abstract&amp;gt;&amp;gt;&lt;/i&gt;&lt;br&gt;&lt;b&gt;+ Observer&lt;/b&gt;&lt;/p&gt;&lt;hr size=&quot;1&quot; style=&quot;border-style:solid;&quot;&gt;&lt;p style=&quot;margin:0px;margin-left:4px;&quot;&gt;&lt;br&gt;&lt;/p&gt;&lt;hr size=&quot;1&quot; style=&quot;border-style:solid;&quot;&gt;&lt;p style=&quot;margin:0px;margin-left:4px;&quot;&gt;&amp;nbsp;+ update()&lt;/p&gt;" style="verticalAlign=top;align=left;overflow=fill;html=1;whiteSpace=wrap;fillColor=none;" vertex="1" parent="1">
          <mxGeometry x="555" y="50" width="190" height="90" as="geometry" />
        </mxCell>
        <mxCell id="WHYjxWJRfi_5MJf1iiia-12" value="" style="endArrow=open;endFill=1;endSize=12;html=1;rounded=0;exitX=0;exitY=0.5;exitDx=0;exitDy=0;" edge="1" parent="1" source="WHYjxWJRfi_5MJf1iiia-1">
          <mxGeometry width="160" relative="1" as="geometry">
            <mxPoint x="230" y="350" as="sourcePoint" />
            <mxPoint x="250" y="335" as="targetPoint" />
          </mxGeometry>
        </mxCell>
        <mxCell id="WHYjxWJRfi_5MJf1iiia-13" value="" style="endArrow=open;endFill=1;endSize=12;html=1;rounded=0;exitX=0.998;exitY=0.374;exitDx=0;exitDy=0;entryX=0;entryY=0.5;entryDx=0;entryDy=0;exitPerimeter=0;" edge="1" parent="1" source="WHYjxWJRfi_5MJf1iiia-10" target="WHYjxWJRfi_5MJf1iiia-11">
          <mxGeometry width="160" relative="1" as="geometry">
            <mxPoint x="350" y="291" as="sourcePoint" />
            <mxPoint x="250" y="290" as="targetPoint" />
          </mxGeometry>
        </mxCell>
        <mxCell id="WHYjxWJRfi_5MJf1iiia-14" value="+ pieObserver" style="swimlane;fontStyle=1;align=center;verticalAlign=top;childLayout=stackLayout;horizontal=1;startSize=26;horizontalStack=0;resizeParent=1;resizeParentMax=0;resizeLast=0;collapsible=1;marginBottom=0;whiteSpace=wrap;html=1;" vertex="1" parent="1">
          <mxGeometry x="570" y="296" width="160" height="80" as="geometry" />
        </mxCell>
        <mxCell id="WHYjxWJRfi_5MJf1iiia-15" value="" style="line;strokeWidth=1;fillColor=none;align=left;verticalAlign=middle;spacingTop=-1;spacingLeft=3;spacingRight=3;rotatable=0;labelPosition=right;points=[];portConstraint=eastwest;strokeColor=inherit;" vertex="1" parent="WHYjxWJRfi_5MJf1iiia-14">
          <mxGeometry y="26" width="160" height="8" as="geometry" />
        </mxCell>
        <mxCell id="WHYjxWJRfi_5MJf1iiia-16" value="+ update()&lt;div&gt;+ checkState(&lt;span style=&quot;background-color: transparent; color: light-dark(rgb(0, 0, 0), rgb(255, 255, 255));&quot;&gt;): List&amp;lt;Int&amp;gt;&lt;/span&gt;&lt;/div&gt;" style="text;strokeColor=none;fillColor=none;align=left;verticalAlign=top;spacingLeft=4;spacingRight=4;overflow=hidden;rotatable=0;points=[[0,0.5],[1,0.5]];portConstraint=eastwest;whiteSpace=wrap;html=1;" vertex="1" parent="WHYjxWJRfi_5MJf1iiia-14">
          <mxGeometry y="34" width="160" height="46" as="geometry" />
        </mxCell>
        <mxCell id="WHYjxWJRfi_5MJf1iiia-17" value="+ histogramObserver" style="swimlane;fontStyle=1;align=center;verticalAlign=top;childLayout=stackLayout;horizontal=1;startSize=26;horizontalStack=0;resizeParent=1;resizeParentMax=0;resizeLast=0;collapsible=1;marginBottom=0;whiteSpace=wrap;html=1;" vertex="1" parent="1">
          <mxGeometry x="775" y="296" width="160" height="80" as="geometry" />
        </mxCell>
        <mxCell id="WHYjxWJRfi_5MJf1iiia-18" value="" style="line;strokeWidth=1;fillColor=none;align=left;verticalAlign=middle;spacingTop=-1;spacingLeft=3;spacingRight=3;rotatable=0;labelPosition=right;points=[];portConstraint=eastwest;strokeColor=inherit;" vertex="1" parent="WHYjxWJRfi_5MJf1iiia-17">
          <mxGeometry y="26" width="160" height="8" as="geometry" />
        </mxCell>
        <mxCell id="WHYjxWJRfi_5MJf1iiia-19" value="+ update()&lt;div&gt;+ checkState(&lt;span style=&quot;background-color: transparent; color: light-dark(rgb(0, 0, 0), rgb(255, 255, 255));&quot;&gt;): List&amp;lt;Int&amp;gt;&lt;/span&gt;&lt;/div&gt;" style="text;strokeColor=none;fillColor=none;align=left;verticalAlign=top;spacingLeft=4;spacingRight=4;overflow=hidden;rotatable=0;points=[[0,0.5],[1,0.5]];portConstraint=eastwest;whiteSpace=wrap;html=1;" vertex="1" parent="WHYjxWJRfi_5MJf1iiia-17">
          <mxGeometry y="34" width="160" height="46" as="geometry" />
        </mxCell>
        <mxCell id="WHYjxWJRfi_5MJf1iiia-20" value="" style="endArrow=block;endSize=16;endFill=0;html=1;rounded=0;entryX=0.5;entryY=1;entryDx=0;entryDy=0;exitX=0.5;exitY=0;exitDx=0;exitDy=0;" edge="1" parent="1" source="WHYjxWJRfi_5MJf1iiia-14" target="WHYjxWJRfi_5MJf1iiia-11">
          <mxGeometry width="160" relative="1" as="geometry">
            <mxPoint x="459" y="306" as="sourcePoint" />
            <mxPoint x="613" y="150" as="targetPoint" />
          </mxGeometry>
        </mxCell>
        <mxCell id="WHYjxWJRfi_5MJf1iiia-21" value="" style="endArrow=block;endSize=16;endFill=0;html=1;rounded=0;entryX=0.75;entryY=1;entryDx=0;entryDy=0;exitX=0.5;exitY=0;exitDx=0;exitDy=0;" edge="1" parent="1" source="WHYjxWJRfi_5MJf1iiia-17" target="WHYjxWJRfi_5MJf1iiia-11">
          <mxGeometry width="160" relative="1" as="geometry">
            <mxPoint x="469" y="316" as="sourcePoint" />
            <mxPoint x="623" y="160" as="targetPoint" />
          </mxGeometry>
        </mxCell>
        <mxCell id="WHYjxWJRfi_5MJf1iiia-23" value="" style="endArrow=open;endFill=1;endSize=12;html=1;rounded=0;exitX=0.5;exitY=1;exitDx=0;exitDy=0;entryX=0.623;entryY=1.017;entryDx=0;entryDy=0;entryPerimeter=0;" edge="1" parent="1" source="WHYjxWJRfi_5MJf1iiia-14" target="WHYjxWJRfi_5MJf1iiia-7">
          <mxGeometry width="160" relative="1" as="geometry">
            <mxPoint x="660" y="380" as="sourcePoint" />
            <mxPoint x="190" y="390" as="targetPoint" />
            <Array as="points">
              <mxPoint x="650" y="420" />
              <mxPoint x="190" y="420" />
            </Array>
          </mxGeometry>
        </mxCell>
        <mxCell id="WHYjxWJRfi_5MJf1iiia-24" value="" style="endArrow=open;endFill=1;endSize=12;html=1;rounded=0;entryX=0.19;entryY=1.021;entryDx=0;entryDy=0;entryPerimeter=0;exitX=0.468;exitY=0.999;exitDx=0;exitDy=0;exitPerimeter=0;" edge="1" parent="1" source="WHYjxWJRfi_5MJf1iiia-19" target="WHYjxWJRfi_5MJf1iiia-7">
          <mxGeometry width="160" relative="1" as="geometry">
            <mxPoint x="850" y="380" as="sourcePoint" />
            <mxPoint x="390" y="387" as="targetPoint" />
            <Array as="points">
              <mxPoint x="850" y="440" />
              <mxPoint x="620" y="440" />
              <mxPoint x="120" y="440" />
            </Array>
          </mxGeometry>
        </mxCell>
      </root>
    </mxGraphModel>
  </diagram>
</mxfile>
